<svg xmlns="http://www.w3.org/2000/svg" shape-rendering="geometricPrecision" text-rendering="geometricPrecision" image-rendering="optimizeQuality" fill-rule="evenodd" clip-rule="evenodd" viewBox="0 0 512 512"><path fill="#0983E0" fill-rule="nonzero" d="M256 0c70.425 0 134.454 28.817 180.807 75.17C483.183 121.546 512 185.575 512 256c0 70.309-28.794 134.291-75.193 180.714C390.245 483.23 326.286 512 256 512c-70.425 0-134.454-28.817-180.83-75.193C28.817 390.454 0 326.425 0 256c0-70.355 28.817-134.361 75.17-180.737C121.639 28.817 185.645 0 256 0z"/><path fill="#88DFF3" d="M256 19.7c129.965 0 236.3 106.335 236.3 236.3 0 129.965-106.335 236.3-236.3 236.3-129.965 0-236.3-106.335-236.3-236.3C19.7 126.035 126.035 19.7 256 19.7z"/><path fill="#A3EDFD" d="M255.977 29.468h.046c124.593 0 226.509 101.916 226.509 226.509v.046c0 124.593-101.916 226.509-226.509 226.509h-.046c-124.593 0-226.509-101.916-226.509-226.509v-.046c0-124.593 101.916-226.509 226.509-226.509z"/><path fill="#E8FBFD" d="M253.865 37.167c121.92 0 221.647 99.727 221.647 221.648 0 5.692-.215 11.288-.645 16.884C456.093 146.46 344.169 46.398 209.932 46.398c-7.534 0-14.995.335-22.361.957 20.95-6.625 43.215-10.188 66.294-10.188z"/><path fill="#fff" fill-rule="nonzero" d="M294.639 207.017l-10.457 152.794c-.856 12.951-7.281 19.477-19.275 19.477h-16.63c-15.32 0-27.011-3.654-34.923-10.91-4.309-3.956-7.559-8.718-9.625-14.136-1.89-5.014-2.872-10.557-2.872-16.63 1.537-43.489 5.921-87.155 9.071-130.595h-31.144c-6.274 0-11.338-2.419-15.067-7.181-2.823-3.603-4.259-7.987-4.259-13.027l.983-18.116c.227-3.553.907-7.206 1.915-10.835 1.26-4.51 3.427-8.693 6.4-12.422 3.15-3.93 7.131-7.08 11.767-9.297 2.519-1.21 5.266-2.142 7.987-2.671a43.624 43.624 0 018.088-.756h135.106c4.082 0 7.962 1.108 11.515 3.225 6.198 3.704 9.323 9.399 9.323 17.008l-1.26 18.897c-.605 9.273-3.427 17.084-8.366 23.409-3.553 4.51-8.441 7.735-14.513 9.625-4.611 1.411-9.927 2.141-16.05 2.141h-17.714z"/><path fill="#0983E0" fill-rule="nonzero" d="M279.723 191.018l-11.49 167.735c-.202 3.023-1.31 4.535-3.326 4.535h-16.63c-11.263 0-19.326-2.217-24.164-6.652-4.837-4.435-7.256-10.784-7.256-19.024 0-3.023.151-7.559.453-13.606.303-6.047.756-13.153 1.361-21.316.605-8.164 1.259-17.008 1.965-26.583.706-9.575 1.462-19.25 2.268-29.027.806-9.751 1.562-19.477 2.268-29.152.705-9.676 1.36-18.646 1.965-26.91h-48.353c-2.217 0-3.326-1.412-3.326-4.209l.907-16.932a39.87 39.87 0 011.361-7.71 18.957 18.957 0 013.477-6.803c1.613-2.016 3.679-3.629 6.199-4.838 2.519-1.209 5.568-1.814 9.196-1.814h135.106c1.209 0 2.318.302 3.326.907 1.007.605 1.512 1.714 1.512 3.326l-1.21 17.839c-.403 6.047-2.066 10.936-4.989 14.665-2.923 3.704-8.919 5.569-17.99 5.569h-32.63z"/></svg>